<svg xmlns="http://www.w3.org/2000/svg" width="1200" height="630" viewBox="0 0 1200 630">
  <defs>
    <linearGradient id="bg" x1="0%" y1="0%" x2="100%" y2="100%">
      <stop offset="0%" stop-color="#0a0e1a"/>
      <stop offset="40%" stop-color="#111827"/>
      <stop offset="100%" stop-color="#0f1729"/>
    </linearGradient>
    <radialGradient id="glow" cx="30%" cy="40%" r="55%">
      <stop offset="0%" stop-color="#3b82f6" stop-opacity="0.18"/>
      <stop offset="100%" stop-color="#0a0e1a" stop-opacity="0"/>
    </radialGradient>
    <radialGradient id="glowR" cx="80%" cy="65%" r="40%">
      <stop offset="0%" stop-color="#06b6d4" stop-opacity="0.12"/>
      <stop offset="100%" stop-color="#0a0e1a" stop-opacity="0"/>
    </radialGradient>
    <linearGradient id="cardGrad" x1="0%" y1="0%" x2="0%" y2="100%">
      <stop offset="0%" stop-color="#ffffff" stop-opacity="0.07"/>
      <stop offset="100%" stop-color="#ffffff" stop-opacity="0.02"/>
    </linearGradient>
    <linearGradient id="barRed" x1="0%" y1="0%" x2="100%" y2="0%">
      <stop offset="0%" stop-color="#ef4444"/>
      <stop offset="100%" stop-color="#f97316"/>
    </linearGradient>
    <linearGradient id="barGreen" x1="0%" y1="0%" x2="100%" y2="0%">
      <stop offset="0%" stop-color="#10b981"/>
      <stop offset="100%" stop-color="#34d399"/>
    </linearGradient>
    <linearGradient id="barBlue" x1="0%" y1="0%" x2="100%" y2="0%">
      <stop offset="0%" stop-color="#3b82f6"/>
      <stop offset="100%" stop-color="#818cf8"/>
    </linearGradient>
    <linearGradient id="barAmber" x1="0%" y1="0%" x2="100%" y2="0%">
      <stop offset="0%" stop-color="#f59e0b"/>
      <stop offset="100%" stop-color="#fbbf24"/>
    </linearGradient>
    <linearGradient id="crossGrad" x1="0%" y1="0%" x2="100%" y2="100%">
      <stop offset="0%" stop-color="#3b82f6"/>
      <stop offset="100%" stop-color="#06b6d4"/>
    </linearGradient>
    <linearGradient id="shimmer" x1="0%" y1="0%" x2="100%" y2="0%">
      <stop offset="0%" stop-color="#3b82f6" stop-opacity="0"/>
      <stop offset="50%" stop-color="#3b82f6" stop-opacity="1"/>
      <stop offset="100%" stop-color="#06b6d4" stop-opacity="0"/>
    </linearGradient>
    <filter id="shadow" x="-20%" y="-20%" width="140%" height="140%">
      <feDropShadow dx="0" dy="4" stdDeviation="12" flood-color="#000" flood-opacity="0.5"/>
    </filter>
    <filter id="glowFilter">
      <feGaussianBlur stdDeviation="6" result="blur"/>
      <feMerge><feMergeNode in="blur"/><feMergeNode in="SourceGraphic"/></feMerge>
    </filter>
  </defs>

  <!-- Background -->
  <rect width="1200" height="630" fill="url(#bg)"/>
  <rect width="1200" height="630" fill="url(#glow)"/>
  <rect width="1200" height="630" fill="url(#glowR)"/>

  <!-- Subtle grid -->
  <g opacity="0.04" stroke="#ffffff" stroke-width="1">
    <line x1="0" y1="105" x2="1200" y2="105"/>
    <line x1="0" y1="210" x2="1200" y2="210"/>
    <line x1="0" y1="315" x2="1200" y2="315"/>
    <line x1="0" y1="420" x2="1200" y2="420"/>
    <line x1="0" y1="525" x2="1200" y2="525"/>
    <line x1="200" y1="0" x2="200" y2="630"/>
    <line x1="400" y1="0" x2="400" y2="630"/>
    <line x1="600" y1="0" x2="600" y2="630"/>
    <line x1="800" y1="0" x2="800" y2="630"/>
    <line x1="1000" y1="0" x2="1000" y2="630"/>
  </g>

  <!-- Top accent line -->
  <rect x="0" y="0" width="1200" height="3" fill="url(#shimmer)"/>

  <!-- ─── LEFT PANEL: Branding ─────────────────────────────────────── -->
  <circle cx="148" cy="185" r="56" fill="url(#crossGrad)" opacity="0.18"/>
  <circle cx="148" cy="185" r="44" fill="url(#crossGrad)" opacity="0.22"/>
  <!-- Medical cross -->
  <g transform="translate(148,185)" fill="#ffffff" filter="url(#glowFilter)">
    <rect x="-8" y="-24" width="16" height="48" rx="4"/>
    <rect x="-24" y="-8" width="48" height="16" rx="4"/>
  </g>

  <!-- MediQ wordmark -->
  <text x="222" y="170" font-family="'Segoe UI', system-ui, -apple-system, sans-serif" font-size="62" font-weight="800" fill="#ffffff" letter-spacing="-2">Medi</text>
  <text x="370" y="170" font-family="'Segoe UI', system-ui, -apple-system, sans-serif" font-size="62" font-weight="800" fill="#3b82f6" letter-spacing="-2">Q</text>
  <text x="222" y="205" font-family="'Segoe UI', system-ui, sans-serif" font-size="18" fill="#94a3b8" letter-spacing="0.5">Ghana's Intelligent ER Management Platform</text>

  <!-- Divider -->
  <rect x="80" y="238" width="340" height="1.5" fill="url(#shimmer)" rx="1"/>

  <!-- Feature badges row 1 -->
  <rect x="80" y="262" width="130" height="32" rx="8" fill="#3b82f6" fill-opacity="0.15" stroke="#3b82f6" stroke-opacity="0.4" stroke-width="1"/>
  <text x="145" y="283" font-family="'Segoe UI', system-ui, sans-serif" font-size="12" font-weight="600" fill="#3b82f6" text-anchor="middle">⚡ Live Queue</text>
  <rect x="222" y="262" width="120" height="32" rx="8" fill="#10b981" fill-opacity="0.12" stroke="#10b981" stroke-opacity="0.4" stroke-width="1"/>
  <text x="282" y="283" font-family="'Segoe UI', system-ui, sans-serif" font-size="12" font-weight="600" fill="#10b981" text-anchor="middle">🏥 Triage</text>
  <rect x="352" y="262" width="130" height="32" rx="8" fill="#8b5cf6" fill-opacity="0.12" stroke="#8b5cf6" stroke-opacity="0.4" stroke-width="1"/>
  <text x="417" y="283" font-family="'Segoe UI', system-ui, sans-serif" font-size="12" font-weight="600" fill="#8b5cf6" text-anchor="middle">📊 Analytics</text>

  <!-- Feature badges row 2 -->
  <rect x="80" y="306" width="150" height="32" rx="8" fill="#f59e0b" fill-opacity="0.12" stroke="#f59e0b" stroke-opacity="0.4" stroke-width="1"/>
  <text x="155" y="327" font-family="'Segoe UI', system-ui, sans-serif" font-size="12" font-weight="600" fill="#f59e0b" text-anchor="middle">🚑 Ambulance Track</text>
  <rect x="242" y="306" width="110" height="32" rx="8" fill="#06b6d4" fill-opacity="0.12" stroke="#06b6d4" stroke-opacity="0.4" stroke-width="1"/>
  <text x="297" y="327" font-family="'Segoe UI', system-ui, sans-serif" font-size="12" font-weight="600" fill="#06b6d4" text-anchor="middle">🛏️ Bed Board</text>
  <rect x="362" y="306" width="120" height="32" rx="8" fill="#ec4899" fill-opacity="0.12" stroke="#ec4899" stroke-opacity="0.4" stroke-width="1"/>
  <text x="422" y="327" font-family="'Segoe UI', system-ui, sans-serif" font-size="12" font-weight="600" fill="#ec4899" text-anchor="middle">🏨 11 Facilities</text>

  <rect x="80" y="358" width="340" height="1" fill="#ffffff" fill-opacity="0.06"/>
  <text x="80" y="385" font-family="'Segoe UI', system-ui, sans-serif" font-size="13" fill="#475569">In memory of </text>
  <text x="175" y="385" font-family="'Segoe UI', system-ui, sans-serif" font-size="13" font-weight="600" fill="#94a3b8">Charles Ammisah</text>
  <text x="80" y="406" font-family="'Segoe UI', system-ui, sans-serif" font-size="12" fill="#334155">mediqgh.com · Built for Ghana's Emergency Departments</text>

  <!-- ─── VERTICAL DIVIDER ──────────────────────────────────────────── -->
  <rect x="540" y="60" width="1" height="510" fill="#ffffff" fill-opacity="0.07"/>

  <!-- ─── RIGHT PANEL: Dashboard Preview ───────────────────────────── -->
  <!-- Title bar -->
  <rect x="570" y="60" width="590" height="46" rx="10" fill="#ffffff" fill-opacity="0.04" stroke="#ffffff" stroke-opacity="0.07" stroke-width="1"/>
  <circle cx="594" cy="83" r="5" fill="#ef4444" opacity="0.7"/>
  <circle cx="612" cy="83" r="5" fill="#f59e0b" opacity="0.7"/>
  <circle cx="630" cy="83" r="5" fill="#10b981" opacity="0.7"/>
  <text x="660" y="88" font-family="'Segoe UI', system-ui, sans-serif" font-size="13" fill="#64748b" font-weight="500">MediQ Dashboard — Emergency Overview</text>

  <!-- KPI Cards -->
  <rect x="570" y="122" width="130" height="70" rx="10" fill="url(#cardGrad)" stroke="#3b82f6" stroke-opacity="0.25" stroke-width="1" filter="url(#shadow)"/>
  <rect x="570" y="122" width="4" height="70" rx="2" fill="#3b82f6"/>
  <text x="586" y="145" font-family="'Segoe UI', system-ui, sans-serif" font-size="11" fill="#94a3b8" font-weight="600">WAITING</text>
  <text x="586" y="172" font-family="'Segoe UI', system-ui, sans-serif" font-size="28" font-weight="800" fill="#3b82f6">24</text>
  <text x="620" y="172" font-family="'Segoe UI', system-ui, sans-serif" font-size="11" fill="#475569">pts</text>

  <rect x="712" y="122" width="130" height="70" rx="10" fill="url(#cardGrad)" stroke="#f59e0b" stroke-opacity="0.25" stroke-width="1" filter="url(#shadow)"/>
  <rect x="712" y="122" width="4" height="70" rx="2" fill="#f59e0b"/>
  <text x="728" y="145" font-family="'Segoe UI', system-ui, sans-serif" font-size="11" fill="#94a3b8" font-weight="600">SERVING</text>
  <text x="728" y="172" font-family="'Segoe UI', system-ui, sans-serif" font-size="28" font-weight="800" fill="#f59e0b">8</text>
  <text x="762" y="172" font-family="'Segoe UI', system-ui, sans-serif" font-size="11" fill="#475569">active</text>

  <rect x="854" y="122" width="130" height="70" rx="10" fill="url(#cardGrad)" stroke="#8b5cf6" stroke-opacity="0.25" stroke-width="1" filter="url(#shadow)"/>
  <rect x="854" y="122" width="4" height="70" rx="2" fill="#8b5cf6"/>
  <text x="870" y="145" font-family="'Segoe UI', system-ui, sans-serif" font-size="11" fill="#94a3b8" font-weight="600">AVG WAIT</text>
  <text x="870" y="172" font-family="'Segoe UI', system-ui, sans-serif" font-size="28" font-weight="800" fill="#8b5cf6">18</text>
  <text x="904" y="172" font-family="'Segoe UI', system-ui, sans-serif" font-size="11" fill="#475569">min</text>

  <rect x="996" y="122" width="130" height="70" rx="10" fill="url(#cardGrad)" stroke="#10b981" stroke-opacity="0.25" stroke-width="1" filter="url(#shadow)"/>
  <rect x="996" y="122" width="4" height="70" rx="2" fill="#10b981"/>
  <text x="1012" y="145" font-family="'Segoe UI', system-ui, sans-serif" font-size="11" fill="#94a3b8" font-weight="600">COMPLETED</text>
  <text x="1012" y="172" font-family="'Segoe UI', system-ui, sans-serif" font-size="28" font-weight="800" fill="#10b981">147</text>
  <text x="1058" y="172" font-family="'Segoe UI', system-ui, sans-serif" font-size="11" fill="#475569">today</text>

  <!-- Queue Panel -->
  <rect x="570" y="206" width="290" height="230" rx="12" fill="url(#cardGrad)" stroke="#ffffff" stroke-opacity="0.07" stroke-width="1" filter="url(#shadow)"/>
  <text x="588" y="230" font-family="'Segoe UI', system-ui, sans-serif" font-size="12" font-weight="700" fill="#94a3b8" letter-spacing="0.8">LIVE QUEUE</text>
  <rect x="680" y="219" width="30" height="18" rx="9" fill="#3b82f6" fill-opacity="0.2"/>
  <text x="695" y="231" font-family="'Segoe UI', system-ui, sans-serif" font-size="10" font-weight="700" fill="#3b82f6" text-anchor="middle">24</text>

  <rect x="584" y="244" width="262" height="36" rx="7" fill="#ef4444" fill-opacity="0.08" stroke="#ef4444" stroke-opacity="0.25" stroke-width="1"/>
  <rect x="584" y="244" width="3" height="36" rx="2" fill="#ef4444"/>
  <text x="596" y="262" font-family="'Segoe UI', system-ui, sans-serif" font-size="12" font-weight="700" fill="#ffffff">A001</text>
  <text x="626" y="262" font-family="'Segoe UI', system-ui, sans-serif" font-size="12" fill="#cbd5e1">Kwame Asante</text>
  <rect x="760" y="249" width="52" height="18" rx="9" fill="#ef4444" fill-opacity="0.25"/>
  <text x="786" y="261" font-family="'Segoe UI', system-ui, sans-serif" font-size="10" font-weight="700" fill="#ef4444" text-anchor="middle">CRITICAL</text>
  <text x="820" y="262" font-family="'Segoe UI', system-ui, sans-serif" font-size="11" fill="#ef4444">3m</text>

  <rect x="584" y="286" width="262" height="36" rx="7" fill="#f59e0b" fill-opacity="0.06" stroke="#f59e0b" stroke-opacity="0.2" stroke-width="1"/>
  <rect x="584" y="286" width="3" height="36" rx="2" fill="#f59e0b"/>
  <text x="596" y="304" font-family="'Segoe UI', system-ui, sans-serif" font-size="12" font-weight="700" fill="#ffffff">A002</text>
  <text x="626" y="304" font-family="'Segoe UI', system-ui, sans-serif" font-size="12" fill="#cbd5e1">Ama Boateng</text>
  <rect x="762" y="291" width="46" height="18" rx="9" fill="#f59e0b" fill-opacity="0.2"/>
  <text x="785" y="303" font-family="'Segoe UI', system-ui, sans-serif" font-size="10" font-weight="700" fill="#f59e0b" text-anchor="middle">URGENT</text>
  <text x="820" y="304" font-family="'Segoe UI', system-ui, sans-serif" font-size="11" fill="#64748b">12m</text>

  <rect x="584" y="328" width="262" height="36" rx="7" fill="#ffffff" fill-opacity="0.03" stroke="#ffffff" stroke-opacity="0.07" stroke-width="1"/>
  <rect x="584" y="328" width="3" height="36" rx="2" fill="#3b82f6"/>
  <text x="596" y="346" font-family="'Segoe UI', system-ui, sans-serif" font-size="12" font-weight="700" fill="#ffffff">A003</text>
  <text x="626" y="346" font-family="'Segoe UI', system-ui, sans-serif" font-size="12" fill="#cbd5e1">Kofi Mensah</text>
  <rect x="762" y="333" width="46" height="18" rx="9" fill="#3b82f6" fill-opacity="0.2"/>
  <text x="785" y="345" font-family="'Segoe UI', system-ui, sans-serif" font-size="10" font-weight="700" fill="#3b82f6" text-anchor="middle">SEMI-U</text>
  <text x="820" y="346" font-family="'Segoe UI', system-ui, sans-serif" font-size="11" fill="#64748b">28m</text>

  <rect x="584" y="370" width="262" height="36" rx="7" fill="#ffffff" fill-opacity="0.02" stroke="#ffffff" stroke-opacity="0.05" stroke-width="1"/>
  <rect x="584" y="370" width="3" height="36" rx="2" fill="#10b981"/>
  <text x="596" y="388" font-family="'Segoe UI', system-ui, sans-serif" font-size="12" font-weight="700" fill="#ffffff">A004</text>
  <text x="626" y="388" font-family="'Segoe UI', system-ui, sans-serif" font-size="12" fill="#94a3b8">Abena Owusu</text>
  <rect x="762" y="375" width="46" height="18" rx="9" fill="#10b981" fill-opacity="0.15"/>
  <text x="785" y="387" font-family="'Segoe UI', system-ui, sans-serif" font-size="10" font-weight="700" fill="#10b981" text-anchor="middle">NON-U</text>
  <text x="820" y="388" font-family="'Segoe UI', system-ui, sans-serif" font-size="11" fill="#64748b">41m</text>
  <text x="715" y="420" font-family="'Segoe UI', system-ui, sans-serif" font-size="11" fill="#334155" text-anchor="middle">+ 20 more patients in queue…</text>

  <!-- Inpatient Wards Panel -->
  <rect x="872" y="206" width="254" height="230" rx="12" fill="url(#cardGrad)" stroke="#ffffff" stroke-opacity="0.07" stroke-width="1" filter="url(#shadow)"/>
  <text x="890" y="230" font-family="'Segoe UI', system-ui, sans-serif" font-size="12" font-weight="700" fill="#94a3b8" letter-spacing="0.8">INPATIENT WARDS</text>

  <text x="890" y="258" font-family="'Segoe UI', system-ui, sans-serif" font-size="11" font-weight="800" fill="#3b82f6">OB</text>
  <rect x="910" y="248" width="160" height="8" rx="4" fill="#ffffff" fill-opacity="0.08"/>
  <rect x="910" y="248" width="112" height="8" rx="4" fill="url(#barBlue)"/>
  <text x="1078" y="258" font-family="'Segoe UI', system-ui, sans-serif" font-size="10" fill="#94a3b8">14/20</text>

  <text x="890" y="282" font-family="'Segoe UI', system-ui, sans-serif" font-size="11" font-weight="800" fill="#ef4444">ICU</text>
  <rect x="910" y="272" width="160" height="8" rx="4" fill="#ffffff" fill-opacity="0.08"/>
  <rect x="910" y="272" width="144" height="8" rx="4" fill="url(#barRed)"/>
  <text x="1078" y="282" font-family="'Segoe UI', system-ui, sans-serif" font-size="10" fill="#94a3b8">9/10</text>

  <text x="890" y="306" font-family="'Segoe UI', system-ui, sans-serif" font-size="11" font-weight="800" fill="#10b981">SUR</text>
  <rect x="910" y="296" width="160" height="8" rx="4" fill="#ffffff" fill-opacity="0.08"/>
  <rect x="910" y="296" width="72" height="8" rx="4" fill="url(#barGreen)"/>
  <text x="1078" y="306" font-family="'Segoe UI', system-ui, sans-serif" font-size="10" fill="#94a3b8">9/20</text>

  <text x="890" y="330" font-family="'Segoe UI', system-ui, sans-serif" font-size="11" font-weight="800" fill="#f59e0b">PED</text>
  <rect x="910" y="320" width="160" height="8" rx="4" fill="#ffffff" fill-opacity="0.08"/>
  <rect x="910" y="320" width="96" height="8" rx="4" fill="url(#barAmber)"/>
  <text x="1078" y="330" font-family="'Segoe UI', system-ui, sans-serif" font-size="10" fill="#94a3b8">12/20</text>

  <text x="890" y="354" font-family="'Segoe UI', system-ui, sans-serif" font-size="11" font-weight="800" fill="#8b5cf6">MED</text>
  <rect x="910" y="344" width="160" height="8" rx="4" fill="#ffffff" fill-opacity="0.08"/>
  <rect x="910" y="344" width="128" height="8" rx="4" fill="#8b5cf6"/>
  <text x="1078" y="354" font-family="'Segoe UI', system-ui, sans-serif" font-size="10" fill="#94a3b8">16/25</text>

  <text x="890" y="378" font-family="'Segoe UI', system-ui, sans-serif" font-size="11" font-weight="800" fill="#06b6d4">GYN</text>
  <rect x="910" y="368" width="160" height="8" rx="4" fill="#ffffff" fill-opacity="0.08"/>
  <rect x="910" y="368" width="56" height="8" rx="4" fill="#06b6d4"/>
  <text x="1078" y="378" font-family="'Segoe UI', system-ui, sans-serif" font-size="10" fill="#94a3b8">7/15</text>

  <!-- Ambulance Panel -->
  <rect x="570" y="450" width="275" height="118" rx="12" fill="url(#cardGrad)" stroke="#f59e0b" stroke-opacity="0.18" stroke-width="1" filter="url(#shadow)"/>
  <text x="588" y="473" font-family="'Segoe UI', system-ui, sans-serif" font-size="12" font-weight="700" fill="#f59e0b" letter-spacing="0.5">AMBULANCES EN ROUTE</text>
  <rect x="714" y="461" width="24" height="18" rx="9" fill="#f59e0b" fill-opacity="0.2"/>
  <text x="726" y="473" font-family="'Segoe UI', system-ui, sans-serif" font-size="10" font-weight="700" fill="#f59e0b" text-anchor="middle">3</text>

  <rect x="584" y="481" width="247" height="30" rx="6" fill="#ef4444" fill-opacity="0.06" stroke="#ef4444" stroke-opacity="0.2" stroke-width="1"/>
  <text x="596" y="500" font-family="'Segoe UI', system-ui, sans-serif" font-size="12" font-weight="700" fill="#ffffff">AMB-04</text>
  <text x="650" y="500" font-family="'Segoe UI', system-ui, sans-serif" font-size="11" fill="#94a3b8">Yaw Darko · Chest Pain</text>
  <text x="810" y="500" font-family="'Segoe UI', system-ui, sans-serif" font-size="11" font-weight="700" fill="#34d399">4m</text>

  <rect x="584" y="517" width="247" height="28" rx="6" fill="#ffffff" fill-opacity="0.02" stroke="#ffffff" stroke-opacity="0.06" stroke-width="1"/>
  <text x="596" y="534" font-family="'Segoe UI', system-ui, sans-serif" font-size="12" font-weight="700" fill="#ffffff">AMB-07</text>
  <text x="650" y="534" font-family="'Segoe UI', system-ui, sans-serif" font-size="11" fill="#94a3b8">Akosua Frimpong</text>
  <text x="810" y="534" font-family="'Segoe UI', system-ui, sans-serif" font-size="11" font-weight="700" fill="#34d399">11m</text>

  <!-- Escalations Panel -->
  <rect x="857" y="450" width="269" height="118" rx="12" fill="url(#cardGrad)" stroke="#ef4444" stroke-opacity="0.18" stroke-width="1" filter="url(#shadow)"/>
  <text x="875" y="473" font-family="'Segoe UI', system-ui, sans-serif" font-size="12" font-weight="700" fill="#ef4444" letter-spacing="0.5">ESCALATIONS</text>
  <rect x="975" y="461" width="24" height="18" rx="9" fill="#ef4444" fill-opacity="0.2"/>
  <text x="987" y="473" font-family="'Segoe UI', system-ui, sans-serif" font-size="10" font-weight="700" fill="#ef4444" text-anchor="middle">2</text>

  <rect x="871" y="481" width="241" height="30" rx="6" fill="#ef4444" fill-opacity="0.08" stroke="#ef4444" stroke-opacity="0.25" stroke-width="1"/>
  <text x="883" y="500" font-family="'Segoe UI', system-ui, sans-serif" font-size="11" font-weight="700" fill="#ffffff">Sepsis Protocol</text>
  <rect x="980" y="485" width="52" height="18" rx="9" fill="#ef4444" fill-opacity="0.3"/>
  <text x="1006" y="497" font-family="'Segoe UI', system-ui, sans-serif" font-size="10" font-weight="700" fill="#ef4444" text-anchor="middle">CRITICAL</text>
  <text x="1040" y="500" font-family="'Segoe UI', system-ui, sans-serif" font-size="10" fill="#94a3b8">Ward 3A</text>

  <rect x="871" y="517" width="241" height="28" rx="6" fill="#f59e0b" fill-opacity="0.06" stroke="#f59e0b" stroke-opacity="0.2" stroke-width="1"/>
  <text x="883" y="534" font-family="'Segoe UI', system-ui, sans-serif" font-size="11" font-weight="700" fill="#ffffff">Bed Shortage Alert</text>
  <rect x="990" y="521" width="42" height="18" rx="9" fill="#f59e0b" fill-opacity="0.25"/>
  <text x="1011" y="533" font-family="'Segoe UI', system-ui, sans-serif" font-size="10" font-weight="700" fill="#f59e0b" text-anchor="middle">HIGH</text>
  <text x="1040" y="534" font-family="'Segoe UI', system-ui, sans-serif" font-size="10" fill="#94a3b8">ICU</text>

  <!-- Footer -->
  <rect x="0" y="600" width="1200" height="30" fill="#000000" fill-opacity="0.3"/>
  <text x="80" y="620" font-family="'Segoe UI', system-ui, sans-serif" font-size="12" fill="#475569">mediqgh.com</text>
  <text x="600" y="620" font-family="'Segoe UI', system-ui, sans-serif" font-size="12" fill="#475569" text-anchor="middle">Real-time · Multi-facility · Clinical Decision Support</text>
  <text x="1120" y="620" font-family="'Segoe UI', system-ui, sans-serif" font-size="12" fill="#334155" text-anchor="end">v1.0 · Ghana 🇬🇭</text>
</svg>
